# xmcd
#
# Track frame offsets: 
#        150
#        14249
#        41899
#        75891
#        102589
#        128872
#        155915
#        193483
#
# Disc length: 3088 seconds
#
# Revision: 0
# Processed by: cddbd v1.5.2PL0 Copyright (c) Steve Scherf et al.
# Submitted via: ExactAudioCopy v1.1
#
DISCID=730c0e08
DTITLE=Bernard Allison Group - Live At The Jazzhaus [disk 1]
DYEAR=2011
DGENRE=Modern Electric Blues
TTITLE0=Send It In
TTITLE1=I Wouldn't Treat a Dog
TTITLE2=Rocket 88
TTITLE3=Tired of Tryin'
TTITLE4=So Devine
TTITLE5=Black and White
TTITLE6=Life Goes On
TTITLE7=Allison Way
EXTD=
EXTT0=
EXTT1=
EXTT2=
EXTT3=
EXTT4=
EXTT5=
EXTT6=
EXTT7=
PLAYORDER=
